<?xml version="1.0" encoding="UTF-8"?>
<svg width="46px" height="46px" viewBox="0 0 46 46" version="1.1" xmlns="http://www.w3.org/2000/svg" xmlns:xlink="http://www.w3.org/1999/xlink">
    <!-- Generator: Sketch 47 (45396) - http://www.bohemiancoding.com/sketch -->
    <title>Group 11</title>
    <desc>Created with Sketch.</desc>
    <defs></defs>
    <g id="desktop" stroke="none" stroke-width="1" fill="none" fill-rule="evenodd">
        <g id="HOME-scroll" transform="translate(-932.000000, -704.000000)">
            <g id="Group-2" transform="translate(838.000000, 704.000000)">
                <g id="Group-7">
                    <g id="Group-11" transform="translate(94.000000, 0.000000)">
                        <rect id="Rectangle-7-Copy-2" fill="#EEEEEE" x="0" y="0" width="46" height="46"></rect>
                        <g id="iconmonstr-pinterest-1" transform="translate(13.000000, 15.000000)" fill-rule="nonzero" fill="#9B9B9B">
                            <path d="M9.5,0 C4.253625,0 0,4.25283333 0,9.5 C0,13.5248333 2.50404167,16.96225 6.03804167,18.3460833 C5.95491667,17.5947917 5.87970833,16.442125 6.07129167,15.6219583 C6.243875,14.8801667 7.18516667,10.8996667 7.18516667,10.8996667 C7.18516667,10.8996667 6.90095833,10.3304583 6.90095833,9.48891667 C6.90095833,8.16841667 7.6665,7.182 8.61966667,7.182 C9.42954167,7.182 9.82141667,7.79079167 9.82141667,8.51991667 C9.82141667,9.33454167 9.302875,10.5529167 9.0345,11.682625 C8.81045833,12.627875 9.50870833,13.39975 10.4412917,13.39975 C12.1299167,13.39975 13.4274583,11.6192917 13.4274583,9.04954167 C13.4274583,6.77508333 11.7934583,5.184625 9.459625,5.184625 C6.756875,5.184625 5.170375,7.21208333 5.170375,9.30683333 C5.170375,10.1230417 5.48466667,10.9994167 5.87733333,11.4744167 C5.95491667,11.568625 5.966,11.65175 5.94304167,11.7475417 L5.67941667,12.8242083 C5.63745833,12.998375 5.54166667,13.0355833 5.36116667,12.9516667 C4.17445833,12.3990833 3.43266667,10.6645417 3.43266667,9.27120833 C3.43266667,6.27475 5.60975,3.522125 9.70979167,3.522125 C13.0055,3.522125 15.5665417,5.871 15.5665417,9.00916667 C15.5665417,12.2835 13.5026667,14.9181667 10.6368333,14.9181667 C9.67416667,14.9181667 8.76929167,14.418625 8.45975,13.82725 L7.86758333,16.085875 C7.65304167,16.9115833 7.07433333,17.9462917 6.68641667,18.5764583 C7.57625,18.8511667 8.52070833,19 9.5,19 C14.746375,19 19,14.746375 19,9.5 C19,4.25283333 14.746375,2.812565e-15 9.5,2.812565e-15 L9.5,0 Z" id="Shape"></path>
                        </g>
                    </g>
                </g>
            </g>
        </g>
    </g>
</svg>