<?xml version="1.0" encoding="utf-8"?>
<!-- Generator: Adobe Illustrator 17.0.2, SVG Export Plug-In . SVG Version: 6.00 Build 0)  -->
<!DOCTYPE svg PUBLIC "-//W3C//DTD SVG 1.1//EN" "http://www.w3.org/Graphics/SVG/1.1/DTD/svg11.dtd">
<svg version="1.1" id="Layer_1" xmlns:sketch="http://www.bohemiancoding.com/sketch/ns"
	 xmlns="http://www.w3.org/2000/svg" xmlns:xlink="http://www.w3.org/1999/xlink" x="0px" y="0px" width="104px" height="140px"
	 viewBox="0.125 0 104 140" enable-background="new 0.125 0 104 140" xml:space="preserve">
<title>sprite</title>
<description>Created with Sketch (http://www.bohemiancoding.com/sketch)</description>
<g id="Page-1" sketch:type="MSPage">
	<g id="sprite" sketch:type="MSArtboardGroup">
		<path id="Imported-Layers" sketch:type="MSShapeGroup" fill="#393939" d="M18.643,4.53c0.848-0.5,1.498-1.291,1.805-2.235
			c-0.793,0.463-1.671,0.799-2.606,0.98C17.093,2.49,16.027,2,14.847,2c-2.266,0-4.103,1.808-4.103,4.039
			c0,0.317,0.036,0.625,0.106,0.92c-3.41-0.168-6.434-1.776-8.457-4.22C2.039,3.336,1.836,4.03,1.836,4.77
			c0,1.401,0.725,2.637,1.825,3.362C2.99,8.111,2.357,7.929,1.803,7.627c0,2.008,1.414,3.64,3.291,4.011
			C4.75,11.73,4.388,11.78,4.013,11.78c-0.264,0-0.521-0.025-0.772-0.073c0.522,1.605,2.038,2.773,3.833,2.805
			c-1.405,1.083-3.173,1.729-5.096,1.729c-0.331,0-0.658-0.019-0.979-0.057C2.815,17.331,4.972,18,7.29,18
			c7.547,0,11.675-6.155,11.675-11.493c0-0.175-0.004-0.349-0.012-0.523C19.754,5.415,20.45,4.704,21,3.894
			C20.264,4.215,19.473,4.432,18.643,4.53z"/>
		<path id="Imported-Layers_1_" sketch:type="MSShapeGroup" fill="#393939" d="M35.784,3.267h-3.081
			c-0.364,0-0.771,0.464-0.771,1.084v2.154h3.852v3.069h-3.852v9.217h-3.636V9.574H25V6.505h3.297V4.698
			c0-2.59,1.857-4.698,4.407-4.698h3.081V3.267"/>
		<g id="Fill-1-_x2B_-Fill-2" transform="translate(41.000000, 0.000000)" sketch:type="MSLayerGroup">
			<path id="Fill-1" sketch:type="MSShapeGroup" fill="#393939" d="M4,2c0,1.105-0.77,2-2.038,2C0.77,4,0,3.105,0,2
				c0-1.132,0.795-2,2.012-2C3.23,0,3.975,0.868,4,2C4,2,3.975,0.868,4,2L4,2L4,2z M0,6h4v13H0l0,0V6L0,6z"/>
			<path id="Fill-2" sketch:type="MSShapeGroup" fill="#393939" d="M6.102,9.676c0-1.708-0.051-3.136-0.102-4.368h3.384l0.18,1.904
				h0.077C10.154,6.316,11.41,5,13.513,5C16.077,5,18,6.876,18,10.908V19h-3.898v-7.588c0-1.764-0.564-2.968-1.975-2.968
				c-1.077,0-1.717,0.812-1.999,1.596C10.025,10.32,10,10.712,10,11.104V19H6.102V9.676"/>
		</g>
		<path id="Left" sketch:type="MSShapeGroup" fill="#FFFFFF" d="M5.221,36h1.23l-4.776-5.018H12v-0.965H1.675L6.451,25h-1.23L0,30.5
			L5.221,36z"/>
		<path id="Left-copy" sketch:type="MSShapeGroup" fill="#FFFFFF" d="M46.779,25h-1.23l4.776,5.018H40v0.965h10.325L45.549,36h1.23
			L52,30.5L46.779,25z"/>
		<path id="email-3-icon" sketch:type="MSShapeGroup" d="M12.501,85.592L0.051,75h24.933L12.501,85.592L12.501,85.592z
			 M12.499,89.047L0,78.416v15.596h25v-15.57L12.499,89.047L12.499,89.047z"/>
		<path id="user-icon" sketch:type="MSShapeGroup" d="M21.69,123.864c-3.582-0.828-6.917-1.554-5.302-4.606
			C21.304,109.968,17.691,105,12.5,105c-5.293,0-8.817,5.159-3.888,14.258c1.663,3.071-1.797,3.795-5.302,4.606
			c-3.581,0.828-3.305,2.72-3.305,6.154h24.99C24.995,126.584,25.27,124.692,21.69,123.864L21.69,123.864z"/>
		<path id="pencil-10-icon" sketch:type="MSShapeGroup" d="M7.425,63.617L7.425,63.617L0,64.994l1.498-7.333l0,0L7.425,63.617
			L7.425,63.617z M19.073,40l-2.66,2.673l5.927,5.956L25,45.956L19.073,40L19.073,40z M2.826,56.326l5.927,5.956l12.258-12.318
			l-5.927-5.956L2.826,56.326L2.826,56.326z"/>
	</g>
</g>
<path id="smartphone-6-icon" fill="#393939" d="M72.531,0c-2.66,0.038-5.426,0.256-5.406,2.725c0.006,0.774,0.001,12.932,0,13.715
	c-0.002,2.374,3.243,2.559,5.492,2.56c2.248,0.001,5.508-0.181,5.508-2.56c0-0.785,0-12.919,0-13.715
	C78.125,0.185,75.191,0,72.531,0z M72.625,1.427c0.179,0,0.325,0.136,0.325,0.305s-0.145,0.305-0.325,0.305
	c-0.179,0-0.325-0.136-0.325-0.305S72.446,1.427,72.625,1.427z M72.625,17.965c-0.434,0-0.786-0.33-0.786-0.738
	s0.352-0.738,0.786-0.738c0.434,0,0.786,0.33,0.786,0.738S73.059,17.965,72.625,17.965z M76.867,15.539h-8.484V3.256h8.484V15.539z"
	/>
<g>
	<path id="email-3-icon_1_" fill="#393939" d="M94.626,11.128L87.156,5h14.96L94.626,11.128z M94.624,13.128l-7.499-6.151V16h15
		V6.991L94.624,13.128z"/>
</g>
</svg>
